<?xml version="1.0" encoding="utf-8"?>
<!DOCTYPE svg PUBLIC "-//W3C//DTD SVG 1.1//EN" "http://www.w3.org/Graphics/SVG/1.1/DTD/svg11.dtd">
<svg version="1.1" id="Layer_1" xmlns="http://www.w3.org/2000/svg" xmlns:xlink="http://www.w3.org/1999/xlink" x="0px" y="0px"
	 width="1024px" height="1024px" viewBox="0 0 1024 1024" enable-background="new 0 0 1024 1024" xml:space="preserve">
<g>
	<path d="M494.8,353h-51.2v135.8H484.4c32.6,0,93.199,0,93.199-71.8C577.6,353,523.4,353,494.8,353z"/>
	<path d="M916.8,480C896.4,422.4,887.4,377.6,890.4,345.2C896.6,272,918.2,205,956.2,143.4L810.2,0C764,39,711.6,60.6,652,64.4
		c-54.4,4.8-106.2-5.4-154.8-30.6C447.2,58.2,395.6,68.4,342,64.4C286.4,59.6,236.2,40.2,191.4,6L45.2,149.2
		c36,62.4,56,127.8,60,196c1.8,31.4-7.4,74.6-27.8,130.399c-10.8,31-18.8,58-24.4,80.4c-5.2,22.2-8.4,40.4-9.4,54
		C43,669.4,60,723.2,94.8,771c27.2,35,72.2,73.4,134.6,115.6c68.4,34.2,121.2,56.4,158.2,65.801c10.601,4.8,21,9.6,30.601,14
		c9.6,4.6,20,9,30.8,13.8c23.2,13.6,39.6,28.399,48.2,43.8c10.399-16.6,27.2-31,49.399-43.8c15.601-6.601,29-12.4,39.601-17.601
		c10.6-4.6,18.6-8.199,23.2-10.199c7.8-4,18.199-8.4,30.8-13.2c12.8-5,28.399-11,47-17.601c36-12.399,62.399-24.399,79-35
		c60.6-42.199,104.8-80,133-114c36-47.8,53.6-101.8,52.8-162.6C949.8,582.8,938,539.2,916.8,480z M622.2,541.8
		C587.6,564,539.8,564,515,564h-68.4v183.6H343.8v-471h145.8c67.801,0,124.4,4.2,163.801,51.4c24.6,30,28.8,64,28.8,88.2
		C682.2,471.2,659.2,517.4,622.2,541.8z"/>
</g>
</svg>
