<svg xmlns="http://www.w3.org/2000/svg" width="512" height="512">
<g transform="rotate(-90 256 256)">
  <path style="fill:rgba(254,251,218,.4)" transform="translate(-1.172e-5,170.62641)" d="M 496.246,153.401 281.132,45.842 c -15.738,-7.86 -34.526,-7.86 -50.265,0.002 L 15.751,153.403 c -9.712,4.861 -15.747,14.627 -15.747,25.486 0,10.861 6.035,20.626 15.751,25.489 l 215.116,107.558 c 7.868,3.93 16.497,5.894 25.128,5.894 8.631,0 17.265,-1.965 25.134,-5.897 L 496.246,204.377 c 0.001,-0.001 0.002,-0.001 0.004,-0.002 9.712,-4.861 15.747,-14.627 15.747,-25.487 0,-10.86 -6.035,-20.624 -15.751,-25.487 z m -10.623,29.726 -215.108,107.554 c -9.088,4.539 -19.939,4.539 -29.025,0.002 L 26.384,183.13 c -2.281,-1.142 -2.622,-3.147 -2.622,-4.241 0,-1.093 0.341,-3.098 2.618,-4.237 L 241.49,67.097 c 4.544,-2.27 9.528,-3.405 14.514,-3.405 4.983,0 9.967,1.135 14.508,3.403 L 485.62,174.649 c 2.281,1.142 2.622,3.147 2.622,4.24 0,1.094 -0.341,3.097 -2.619,4.238 z"/>
  <path style="fill:rgba(254,251,218,.2)" d="M 248.47838,463.55704 C 247.265,463.37629 196.42743,438.31253 135.50601,407.85978 57.010815,368.62245 24.631253,352.07613 24.367267,351.06665 c -0.204884,-0.78348 -0.09271,-2.18089 0.249279,-3.10537 0.880215,-2.37945 218.617954,-111.28278 225.324604,-112.69796 3.43488,-0.72481 5.9957,-0.76582 10.30992,-0.16513 5.45142,0.75903 11.29834,3.58222 116.32907,56.16948 105.08421,52.61404 110.60142,55.47734 110.83578,57.52119 0.13565,1.183 -0.19439,2.68232 -0.73342,3.3318 -1.41142,1.70066 -216.90928,109.31134 -221.82975,110.77255 -3.82423,1.13568 -11.1994,1.43468 -16.37437,0.66383 z"/>
  <path style="fill:rgba(254,251,218,.7)" transform="translate(-1e-5,71.11187)" d="M 496.246,153.401 281.132,45.842 c -15.738,-7.86 -34.526,-7.86 -50.265,0.002 L 15.751,153.403 c -9.712,4.861 -15.747,14.627 -15.747,25.486 0,10.861 6.035,20.626 15.751,25.489 l 215.116,107.558 c 7.868,3.93 16.497,5.894 25.128,5.894 8.631,0 17.265,-1.965 25.134,-5.897 L 496.246,204.377 c 0.001,-0.001 0.002,-0.001 0.004,-0.002 9.712,-4.861 15.747,-14.627 15.747,-25.487 0,-10.86 -6.035,-20.624 -15.751,-25.487 z m -10.623,29.726 -215.108,107.554 c -9.088,4.539 -19.939,4.539 -29.025,0.002 L 26.384,183.13 c -2.281,-1.142 -2.622,-3.147 -2.622,-4.241 0,-1.093 0.341,-3.098 2.618,-4.237 L 241.49,67.097 c 4.544,-2.27 9.528,-3.405 14.514,-3.405 4.983,0 9.967,1.135 14.508,3.403 L 485.62,174.649 c 2.281,1.142 2.622,3.147 2.622,4.24 0,1.094 -0.341,3.097 -2.619,4.238 z"/>
  <path style="fill:rgba(254,251,218,.5)" d="M 248.01509,363.74433 C 245.8354,363.157 194.6927,337.9527 134.36465,307.7348 30.14906,255.53394 24.66497,252.68586 24.43064,250.64224 c -0.13565,-1.18301 0.19439,-2.68231 0.73341,-3.33179 1.33735,-1.61141 215.20564,-108.48673 220.99689,-110.43766 5.37118,-1.80942 12.48527,-2.00971 18.06238,-0.50851 2.10464,0.56651 53.13374,25.68977 113.39801,55.82947 80.21513,40.11763 109.70165,55.20984 110.05755,56.3312 0.26739,0.84247 0.10632,2.24151 -0.35794,3.10898 -1.16963,2.18546 -219.27039,111.22116 -224.85727,112.41349 -5.23219,1.11663 -9.51307,1.02683 -14.44858,-0.30309 z"/>
  <path style="fill:rgba(254,251,218,1)"  transform="translate(-1.17e-5,-28.402687)" d="M 496.246,153.401 281.132,45.842 c -15.738,-7.86 -34.526,-7.86 -50.265,0.002 L 15.751,153.403 c -9.712,4.861 -15.747,14.627 -15.747,25.486 0,10.861 6.035,20.626 15.751,25.489 l 215.116,107.558 c 7.868,3.93 16.497,5.894 25.128,5.894 8.631,0 17.265,-1.965 25.134,-5.897 L 496.246,204.377 c 0.001,-0.001 0.002,-0.001 0.004,-0.002 9.712,-4.861 15.747,-14.627 15.747,-25.487 0,-10.86 -6.035,-20.624 -15.751,-25.487 z m -10.623,29.726 -215.108,107.554 c -9.088,4.539 -19.939,4.539 -29.025,0.002 L 26.384,183.13 c -2.281,-1.142 -2.622,-3.147 -2.622,-4.241 0,-1.093 0.341,-3.098 2.618,-4.237 L 241.49,67.097 c 4.544,-2.27 9.528,-3.405 14.514,-3.405 4.983,0 9.967,1.135 14.508,3.403 L 485.62,174.649 c 2.281,1.142 2.622,3.147 2.622,4.24 0,1.094 -0.341,3.097 -2.619,4.238 z"/>
  <path style="fill:rgba(254,251,218,.8)" d="M 246.47526,263.88721 C 245.00201,263.3182 194.50814,238.20552 134.26666,208.08126 56.950372,169.41861 24.627586,152.89267 24.365721,151.89129 c -0.204033,-0.78022 -0.0917,-2.17353 0.249632,-3.09624 C 25.090555,147.51046 50.659858,134.40522 133.75097,92.858924 193.43423,63.016758 243.98796,38.003093 246.0926,37.273 c 2.39835,-0.83198 6.1136,-1.326412 9.95394,-1.324685 5.06452,0.0023 7.18849,0.42102 12.24516,2.41414 3.36481,1.32626 53.98878,26.417681 112.49772,55.758712 l 106.37987,53.347333 0.23636,2.85037 0.23636,2.85038 -111.37164,55.67645 -111.37165,55.67646 -7.87242,0.19981 c -5.22774,0.1327 -8.77228,-0.14773 -10.55104,-0.83476 z"/>
</g>
</svg>