<svg xmlns="http://www.w3.org/2000/svg" width="512" height="512"><style type="text/css">.st0{fill:none;}.st1{fill:#fff;}.st2{fill:none;stroke:#fff;stroke-width:15;stroke-linecap:round;}</style><g transform="translate(28.11026,6)"><path class="st0" d="M 0.4,106.9 C 45.6,42.3 120.6,0 205.4,0 c 138.1,0 250,111.9 250,250 0,138.1 -111.9,250 -250,250 C 124,500 51.6,461 6,400.8"/><path class="st1" d="m 34,395.8 c 0,0 0,-87.4 -0.8,-97.3 0,-9.5 -4.7,-64.2 -3.7,-73.4 l 2.6,0.1 32.8,165.3 45.9,-8.1 26.7,-153.1 c 0.8,0 2.2,0 3,0 1.4,9.4 -2.4,53.8 -2.4,63.3 -0.8,9.9 -0.8,85 -0.8,85 l 46.5,-8.1 0,-230.5 -72.6,-12.6 -20.4,141.2 C 90.1,267.6 70.2,119.2 70.2,119.2 L 0,107 5.7,400.8"/><polygon class="st1" points="329.4,321.1 351.8,318.2 354.7,339.6 380.9,335.1 355.8,169.2 324.6,163.8 293,350.5 326.3,344.6"/><polygon class="st1" points="195.9,200.5 231.1,203.6 231.2,361.2 274.2,353.7 274.2,207.4 302,209.7 302,159.5 195.9,141.1"/><polygon class="st0" points="339.4,225.6 334.4,281.2 347.3,280.4 342.5,225.6"/><path class="st2" d="M 0.4,106.9 C 45.6,42.3 120.6,0 205.4,0 c 138.1,0 250,111.9 250,250 0,138.1 -111.9,250 -250,250 C 124,500 51.6,461 6,400.8"/></g></svg>