<svg xmlns="http://www.w3.org/2000/svg" height="512" viewBox="0 0 512 1024" width="512">
<g style="fill:rgba(0,0,0,.55);stroke:rgba(0,0,0,.55);">
<path d="m 160,96.36 c 0,-53.024 42.976,-96 96,-96 53.024,0 96,42.976 96,96 0,53.024 -42.976,96 -96,96 -53.024,0 -96,-42.976 -96,-96 z m 224,224 L 713.6,178.184 689.824,118.76 288,256.36 l -64,0 -401.824,-137.6 -23.776,59.424 329.6,142.176 0,256 -131.264,424.576 59.84,22.704 185.712,-415.264 27.424,0 185.712,415.264 59.84,-22.704 L 384,576.36 Z"/>
<g transform="matrix(3.6616855,0,0,3.6616855,-217.60059,307.67004)" style="fill:none;stroke:rgba(0,0,0,.55);stroke-width:5;stroke-linecap:round">
<polygon style="fill:none;stroke:5" points="39.389,13.769 39.389,13.769 22.235,28.606 6,28.606 6,47.699 21.989,47.699 39.389,62.75"/>
<path d="m 48.128,49.03 c 1.929,-3.096 3.062,-6.739 3.062,-10.653 0,-3.978 -1.164,-7.674 -3.147,-10.8"/>
<path d="m 55.082,20.537 c 3.695,4.986 5.884,11.157 5.884,17.84 0,6.621 -2.151,12.738 -5.788,17.699"/>
<path d="m 61.71,62.611 c 5.267,-6.666 8.418,-15.08 8.418,-24.233 0,-9.217 -3.192,-17.682 -8.519,-24.368"/>
</g>
</g>
</svg>

