<svg xmlns="http://www.w3.org/2000/svg" width="256" height="256"><g fill="#fff" transform="translate(-200.55198,-217.42227)"><path d="m 280.49561,428.23236 0,-110.92552 -36.8696,0 0,110.92552 36.8696,0 z M 262.06065,302.16183 c 12.85718,0 20.85968,-8.51782 20.85968,-19.16266 -0.2397,-10.88445 -8.0025,-19.16595 -20.6158,-19.16595 -12.61198,0 -20.85804,8.2815 -20.85804,19.16595 0,10.64484 8.00086,19.16266 20.37388,19.16266 l 0.2397,0 z"/><path d="m 300.89671,428.23236 36.86928,0 0,-61.9455 c 0,-3.31524 0.2397,-6.62719 1.21319,-8.99708 2.66528,-6.62388 8.73183,-13.48411 18.91713,-13.48411 13.34131,0 18.67817,10.17219 18.67817,25.08414 l 0,59.34255 36.86632,0 0,-63.60312 c 0,-34.07136 -18.18943,-49.92535 -42.44674,-49.92535 -19.89003,0 -28.62187,11.11751 -33.47327,18.69 l 0.24614,0 0,-16.08705 -36.86925,0 c 0.48384,10.4085 0,110.92552 0,110.92552 z"/></g></svg>