<svg xmlns="http://www.w3.org/2000/svg" width="256" height="256"><g fill="#fff" transform="matrix(3.1754971,0,0,3.2152241,-1.6438702e-5,-1.5814247e-5)"><polygon points="57.85,20.95 57.85,6.95 63.85,6.95 63.85,20.95 77.9,20.95 77.9,26.827 63.85,26.827 63.85,40.95 57.85,40.95 57.85,26.827 43.85,26.827 43.85,20.95"/><path d="m 33.65,55.008 -3.979,-3.096 c -1.212,-0.998 -2.867,-2.328 -2.867,-4.762 0,-2.441 1.655,-3.996 3.09,-5.434 4.637,-3.65 8.957,-7.535 8.957,-15.732 0,-7.484 -4.043,-11.686 -6.753,-14.035 0.909,0 6.765,0 6.765,0 l 6.199,-5 -23.334,0 c -5.79,0.108 -12.694,0.977 -18.987,6.186 -0.295,0.254 0.25,0.516 -0.026,0.781 l 0,27.871 c 3.026,2.516 6.274,3.586 11.284,3.586 1.106,0 2.316,-0.113 3.533,-0.223 -0.551,1.332 -1.104,2.441 -1.104,4.324 0,3.432 1.764,5.533 3.312,7.531 -4.22,0.285 -10.704,0.412 -17.007,3.119 l -0.019,5.809 c 2.278,-3.096 5.054,-3.467 6.648,-4.049 4.636,-1.553 10.599,-1.775 11.597,-1.775 1.098,0 1.65,0 2.53,0.113 8.395,5.986 13.792,8.969 13.792,14.629 0,0.598 10e-4,0.805 -0.021,1.117 l 6.604,-0.004 c 0.648,-2.092 0.984,-3.389 0.984,-5.438 C 44.85,62.881 38.505,59.11 33.65,55.008 Z M 19.563,40.95 C 10.068,40.95 6.17,29.973 6.17,22.554 c 0,-2.887 0.289,-5.873 2.166,-8.201 1.77,-2.217 4.857,-3.656 7.73,-3.656 9.158,0 13.783,12.408 13.783,20.387 0,1.598 -0.812,4.721 -2.884,7.094 -1.815,2.069 -4.644,2.772 -7.402,2.772 z"/></g></svg>