<svg xmlns="http://www.w3.org/2000/svg" width="256" height="256"><g transform="translate(-1.8755,4.7847942)"><path d="m 168.08,170.918 c -2.969,1.416 -8.647,2.648 -12.881,2.754 -12.783,0.342 -15.264,-8.979 -15.367,-15.736 l 0,-49.705 32.065,0 0,-24.176 -31.954,0 0,-40.673 c 0,0 -23.008,0 -23.383,0 -0.385,0 -1.057,0.337 -1.152,1.192 -1.368,12.448 -7.192,34.296 -31.416,43.032 l 0,20.624 16.16,0 0,52.167 c 0,17.863 13.176,43.24 47.959,42.641 11.736,-0.201 24.77,-5.113 27.648,-9.354 l -7.679,-22.766" fill="#fff" /></g></svg>