<svg xmlns="http://www.w3.org/2000/svg" height="256" width="256"><g transform="matrix(2.176,0,0,2.176,40.96,30.08)" fill="#fff"><path d="m 65,60 c -3.436,0 -6.592,1.168 -9.121,3.112 L 29.783,47.455 C 29.914,46.654 30,45.837 30,45 30,44.161 29.914,43.346 29.783,42.544 L 55.879,26.887 C 58.408,28.833 61.564,30 65,30 73.283,30 80,23.283 80,15 80,6.717 73.283,0 65,0 56.717,0 50,6.717 50,15 c 0,0.837 0.086,1.654 0.219,2.455 L 24.123,33.112 C 21.594,31.168 18.438,30 15,30 6.717,30 0,36.717 0,45 c 0,8.283 6.717,15 15,15 3.438,0 6.594,-1.167 9.123,-3.113 L 50.219,72.544 C 50.086,73.346 50,74.161 50,75 c 0,8.283 6.717,15 15,15 8.283,0 15,-6.717 15,-15 0,-8.283 -6.717,-15 -15,-15 z"/></g></svg>