<svg xmlns="http://www.w3.org/2000/svg" width="256" height="256">
  <circle cx="128" cy="128" r="128" style="fill:#38c"/>
  <g style="fill:none;stroke:#fff">
    <circle cx="128" cy="128" r="104" style="stroke-width:16"/>
    <circle cx="128" cy="128" r="20" style="stroke-width:8"/>
  </g>
  <g style="fill:#fff">
    <path d="M112 24 L 144 24 L 128 64 L 112 24"/>
    <path d="M112 232 L 144 232 L 128 192 L 112 232"/>
    <path d="M24 112 L 24 144 L 64 128 L 24 112"/>
    <path d="M232 112 L 232 144 L 192 128 L 232 112"/>
  </g>
  <g transform="matrix(-0.70710678,-0.70710678,0.70710678,-0.70710678,128,309.01934)">
    <path d="m 128,64 -14.12695,56.50781 A 16,16 0 0 1 128,112 a 16,16 0 0 1 14.12891,8.51367 L 128,64 Z M 142.12891,120.51367 144,128 a 16,16 0 0 0 -1.87109,-7.48633 z M 144,128 l -1.87305,7.49219 A 16,16 0 0 0 144,128 Z m -1.87305,7.49219 A 16,16 0 0 1 128,144 16,16 0 0 1 113.87109,135.48633 L 128,192 142.12695,135.49219 Z m -28.25586,-0.006 L 112,128 a 16,16 0 0 0 1.87109,7.48633 z M 112,128 l 1.87305,-7.49219 A 16,16 0 0 0 112,128 Z"
      style="fill:#fff"/>
  </g>
</svg>
