<svg xmlns:svg="http://www.w3.org/2000/svg" xmlns="http://www.w3.org/2000/svg" width="256" height="256"><g transform="translate(0,-796.36216)"><path style="fill:#ffffff;fill-opacity:1" d="m 52.20583,977.36216 c 5.28019,-6.05 17.5892,-19.46158 27.35335,-29.80351 l 17.75301,-18.80351 11.65081,9.80351 c 14.85935,12.50332 25.88298,12.40586 39.19358,-0.34652 l 10.59434,-10.15 26.98413,30.15001 26.98412,30.15002 -85.05683,0 -85.05685,0 9.60034,-11 z M 36,924.36216 36,866.43112 64.96552,895.39664 93.93104,924.36216 64.96552,953.32768 36,982.2932 36,924.36216 Z M 188.17678,951.73655 162.35356,924.07756 191.17678,895.25434 220,866.43112 l 0,56.96552 c 0,31.33104 -1.35,56.74803 -3,56.48221 -1.65,-0.26584 -14.62045,-12.92986 -28.82322,-28.1423 z M 82,900.36216 l -39.8499,-40 87.49999,0 87.49999,0 -41.57504,39.81126 c -22.86627,21.89619 -44.30881,39.89619 -47.65008,40 C 124.58368,940.27723 103.91745,922.36216 82,900.36216 Z"/></g></svg>