<svg xmlns:svg="http://www.w3.org/2000/svg" xmlns="http://www.w3.org/2000/svg" width="256" height="256"><g transform="translate(0,-796.36216)"><path style="fill:#fff" d="m 132,1002.3622 0,-50.00002 -16,0 -16,0 0,-20 0,-20 16,0 16,0 0,-18.12848 c 0,-35.40822 15.81379,-56.3741 44,-58.33507 32.9827,-2.29468 36,-0.95895 36,15.93687 0,15.11756 -0.38112,15.52445 -16.57648,17.6967 -19.25784,2.58302 -23.27824,7.33455 -23.36227,27.61082 L 172,911.92385 l 19,1.21917 19,1.21916 -1.38813,16 c -1.84339,21.24738 -2.55659,22 -20.84794,22 l -15.76393,0 0,50.00002 0,50 -20,0 -20,0 0,-50 z"/></g></svg>