<svg xmlns:svg="http://www.w3.org/2000/svg"  xmlns="http://www.w3.org/2000/svg" width="320" height="320"><g transform="translate(0,-732.36216)"><path style="fill:#fff" d="M 143.79397,1049.9444 C 143.08229,1048.6146 142.5,1042.5538 142.5,1036.476 l 0,-11.0506 -10.56084,-2.1738 C 108.19345,1018.3638 83.380138,1004.7859 65.478228,986.88396 47.576318,968.98204 33.998389,944.16873 29.110577,920.42302 l -2.173841,-10.56084 -11.504082,0 C 0.00107657,909.86218 0,909.86092 0,891.80095 c 0,-11.4427 0.38149585,-14.44927 2.004322,-15.7961 1.2298904,-1.02072 6.4720921,-1.85885 13.567447,-2.16917 l 11.563125,-0.50573 2.115925,-9.84658 C 39.953468,813.67797 79.778969,773.71424 130.625,761.75734 l 11.25,-2.64554 0.625,-11.81231 c 0.34375,-6.49677 1.08007,-12.51544 1.63627,-13.37481 1.42622,-2.20362 30.30124,-2.20362 31.72745,0 0.5562,0.85937 1.29253,6.87804 1.63628,13.37481 l 0.625,11.81231 11.25,2.64554 c 50.40132,11.85232 90.88121,52.36304 101.32407,101.40123 l 2.16603,10.17138 11.56312,0.50573 c 7.09537,0.31032 12.33757,1.14845 13.56745,2.16917 1.62283,1.34683 2.00433,4.3534 2.00433,15.7961 0,18.05997 -0.001,18.06123 -15.43265,18.06123 l -11.50409,0 -2.17384,10.56084 c -10.30186,50.04793 -52.78065,92.52668 -102.82858,102.82858 l -10.56084,2.1738 0,11.0506 c 0,16.2054 0.35169,15.8862 -17.5,15.8862 -13.46378,0 -15.03771,-0.2348 -16.20603,-2.4178 z M 142.5,959.90615 c 0,-19.49067 -0.64874,-18.79397 17.5,-18.79397 18.14874,0 17.5,-0.6967 17.5,18.79397 0,17.96592 -0.43443,17.25933 8.87429,14.43393 13.85992,-4.2068 29.81519,-15.0086 39.68233,-26.8652 6.90941,-8.30247 15.90054,-25.54691 17.167,-32.9252 l 0.8046,-4.6875 -16.34513,0 c -19.65028,0 -18.93309,0.66291 -18.93309,-17.5 0,-18.16291 -0.71719,-17.5 18.93309,-17.5 l 16.34513,0 -0.78908,-4.6875 c -0.43402,-2.57813 -3.4442,-10.03125 -6.68933,-16.5625 -4.7601,-9.58037 -7.83491,-13.8097 -15.91251,-21.8873 -8.0776,-8.0776 -12.30694,-11.15241 -21.8873,-15.91252 -6.53125,-3.24512 -13.98438,-6.25531 -16.5625,-6.68931 l -4.6875,-0.7891 0,16.34514 c 0,19.65028 0.66291,18.93309 -17.5,18.93309 -18.16291,0 -17.5,0.71719 -17.5,-18.93309 l 0,-16.34514 -4.6875,0.8046 c -6.8346,1.17314 -23.58419,9.7446 -31.86476,16.30651 -12.066593,9.56214 -23.580875,26.22137 -27.851473,40.29638 -2.908956,9.58733 -3.63302,9.12074 14.153733,9.12074 10.77778,0 16.48958,0.48959 17.5,1.5 0.99425,0.99425 1.5,6.38889 1.5,16 0,9.61111 -0.50575,15.00575 -1.5,16 -1.01042,1.01041 -6.72222,1.5 -17.5,1.5 -17.786753,0 -17.062689,-0.46659 -14.153733,9.12074 7.326,24.145 30.592443,47.61381 54.741103,55.21723 10.13878,3.19229 9.66263,3.89667 9.66263,-14.294 z"/></g></svg>