<svg xmlns:svg="http://www.w3.org/2000/svg" xmlns="http://www.w3.org/2000/svg" width="256" height="256"><g transform="translate(0,-796.36216)"><path style="fill:#fff" d="m 120,1043.1105 c 0,-9.5131 -11.92839,-22.5468 -35.352316,-38.628 -11.297404,-7.75605 -16.717428,-8.81951 -35.217936,-6.91009 -12.026092,1.24121 -28.067549,5.91599 -35.647684,10.38839 L 0,1016.0924 l 0,-9.3798 c 0,-10.7619 11.36901,-16.52496 40.561292,-20.56098 18.523996,-2.56106 18.550388,-2.58722 13.13602,-13.02342 -2.983896,-5.75147 -4.39134,-14.5767 -3.127656,-19.61162 2.080552,-8.28958 0.915292,-9.1544 -12.334664,-9.1544 -8.047749,0 -19.942884,-2.74622 -26.433632,-6.10272 L 0,932.15674 0,886.53184 c 0,-45.21058 0.0998924,-45.69591 11,-53.44334 17.629324,-12.53033 39.890632,-16.68621 89,-16.61507 l 46,0.0666 -10,7.82211 c -5.5,4.30216 -14.84564,7.86214 -20.76808,7.91106 l -10.76809,0.0889 9.7199,17 c 16.61736,29.06356 11.18791,56.62716 -16.252686,82.50984 C 90.268968,939.09908 84,948.19595 84,952.08728 c 0,3.89134 10.832164,16.49669 24.07148,28.01189 C 135.40049,1003.8692 144,1017.767 144,1038.1635 c 0,13.1096 -0.9204,14.1987 -12,14.1987 -9.87448,0 -12,-1.6387 -12,-9.2517 z M 75.915164,926.40605 c 19.474984,-10.07091 22.5122,-38.031 7.511876,-69.15299 C 72.617728,834.8264 56.702012,826.18996 37.724368,832.45315 20.916162,838.00036 16,846.40901 16,869.61072 c 0,34.19675 18.500194,60.93537 43.19864,62.43567 2.859252,0.17368 10.381688,-2.36447 16.716524,-5.64034 z M 188,908.5618 l 0,-23.80039 -23,-1.19961 c -20.37478,-1.0627 -23.1459,-2.22688 -24.2782,-10.19962 -1.20509,-8.48519 0.11054,-9 23,-9 l 24.2782,0 0,-24 c 0,-22.93333 0.44444,-24 10,-24 9.55556,0 10,1.06667 10,24 l 0,24 24,0 c 22.93333,0 24,0.44444 24,10 0,9.55556 -1.06667,10 -24,10 l -24,0 0,24 c 0,22.93333 -0.44444,24 -10,24 -9.54624,0 -10,-1.07998 -10,-23.80038 z"/></g></svg>