<?xml version="1.0" encoding="UTF-8" standalone="no"?>
<!-- Created with Inkscape (http://www.inkscape.org/) -->

<svg
   xmlns:dc="http://purl.org/dc/elements/1.1/"
   xmlns:cc="http://creativecommons.org/ns#"
   xmlns:rdf="http://www.w3.org/1999/02/22-rdf-syntax-ns#"
   xmlns:svg="http://www.w3.org/2000/svg"
   xmlns="http://www.w3.org/2000/svg"
   xmlns:sodipodi="http://sodipodi.sourceforge.net/DTD/sodipodi-0.dtd"
   xmlns:inkscape="http://www.inkscape.org/namespaces/inkscape"
   width="256"
   height="256"
   viewBox="0 0 256 256"
   id="svg2"
   version="1.1"
   inkscape:version="0.91 r13725"
   sodipodi:docname="linkedin.svg">
  <defs
     id="defs4" />
  <sodipodi:namedview
     id="base"
     pagecolor="#ffffff"
     bordercolor="#666666"
     borderopacity="1.0"
     inkscape:pageopacity="0.0"
     inkscape:pageshadow="2"
     inkscape:zoom="1.8945312"
     inkscape:cx="128"
     inkscape:cy="128"
     inkscape:document-units="px"
     inkscape:current-layer="layer1"
     showgrid="false"
     units="px"
     inkscape:window-width="1280"
     inkscape:window-height="687"
     inkscape:window-x="0"
     inkscape:window-y="0"
     inkscape:window-maximized="1" />
  <metadata
     id="metadata7">
    <rdf:RDF>
      <cc:Work
         rdf:about="">
        <dc:format>image/svg+xml</dc:format>
        <dc:type
           rdf:resource="http://purl.org/dc/dcmitype/StillImage" />
        <dc:title></dc:title>
      </cc:Work>
    </rdf:RDF>
  </metadata>
  <g
     inkscape:label="Layer 1"
     inkscape:groupmode="layer"
     id="layer1"
     transform="translate(0,-796.36216)">
    <path
       style="fill:#000000"
       d="m 62.375,947.79968 0,-45.3125 14.0625,0 14.0625,0 0,45.3125 0,45.3125 -14.0625,0 -14.0625,0 0,-45.3125 z m 46.875,0 0,-45.3125 14.0625,0 c 10.27291,0 14.0625,1.23479 14.0625,4.58211 0,3.65923 2.22974,3.26653 11.0707,-1.94977 13.92696,-8.21711 30.55398,-6.17451 41.88633,5.14566 7.52482,7.51674 8.04002,10.10939 9.02344,45.40945 l 1.04296,37.43755 -14.32421,0 -14.32422,0 0,-26.35906 c 0,-35.13573 -3.10822,-43.09189 -16.33297,-41.80783 -13.88874,1.34852 -17.93968,10.88965 -17.99596,42.38564 l -0.0461,25.78125 -14.0625,0 -14.0625,0 0,-45.3125 z M 69.840937,886.71305 c -10.847275,-4.03345 -12.607176,-19.01021 -3.006381,-25.58427 5.242344,-3.58964 18.897466,-2.78458 23.040444,1.3584 11.77751,11.77751 -3.577356,30.34514 -20.034063,24.22587 z"
       id="path4281"
       inkscape:connector-curvature="0" />
  </g>
</svg>
