<?xml version="1.0" encoding="UTF-8" standalone="no"?>
<!-- Generator: Adobe Illustrator 18.0.0, SVG Export Plug-In . SVG Version: 6.00 Build 0)  -->

<svg
   xmlns:dc="http://purl.org/dc/elements/1.1/"
   xmlns:cc="http://creativecommons.org/ns#"
   xmlns:rdf="http://www.w3.org/1999/02/22-rdf-syntax-ns#"
   xmlns:svg="http://www.w3.org/2000/svg"
   xmlns="http://www.w3.org/2000/svg"
   xmlns:sodipodi="http://sodipodi.sourceforge.net/DTD/sodipodi-0.dtd"
   xmlns:inkscape="http://www.inkscape.org/namespaces/inkscape"
   version="1.1"
   id="Layer_1"
   x="0px"
   y="0px"
   viewBox="0 0 149 52"
   enable-background="new 0 0 149 52"
   xml:space="preserve"
   inkscape:version="0.91 r13725"
   width="100%"
   height="100%"
   sodipodi:docname="nyc.svg"><metadata
     id="metadata29"><rdf:RDF><cc:Work
         rdf:about=""><dc:format>image/svg+xml</dc:format><dc:type
           rdf:resource="http://purl.org/dc/dcmitype/StillImage" /><dc:title></dc:title></cc:Work></rdf:RDF></metadata><defs
     id="defs27" /><sodipodi:namedview
     pagecolor="#ffffff"
     bordercolor="#666666"
     borderopacity="1"
     objecttolerance="10"
     gridtolerance="10"
     guidetolerance="10"
     inkscape:pageopacity="0"
     inkscape:pageshadow="2"
     inkscape:window-width="1600"
     inkscape:window-height="838"
     id="namedview25"
     showgrid="false"
     inkscape:zoom="1.9194631"
     inkscape:cx="-164.88986"
     inkscape:cy="26"
     inkscape:window-x="-8"
     inkscape:window-y="-8"
     inkscape:window-maximized="1"
     inkscape:current-layer="Layer_1" /><g
     id="g3"
     style="fill:#000000;fill-opacity:1;stroke:none;stroke-opacity:1"><g
       id="g5"
       style="fill:#000000;fill-opacity:1;stroke:none;stroke-opacity:1"><g
         id="g7"
         style="fill:#000000;fill-opacity:1;stroke:none;stroke-opacity:1"><polygon
           fill="#80B34E"
           points="49.7,4.3 46.6,1.2 34.1,1.2 31,4.3 31,16.7 15.5,1.2 3.1,1.2 0,4.3 0,47.7 3.1,50.8 15.5,50.8      18.6,47.7 18.6,35.3 34.1,50.8 46.6,50.8 49.7,47.7    "
           id="polygon9"
           style="fill:#000000;fill-opacity:1;stroke:none;stroke-opacity:1" /></g></g><g
       id="g11"
       style="fill:#000000;fill-opacity:1;stroke:none;stroke-opacity:1"><g
         id="g13"
         style="fill:#000000;fill-opacity:1;stroke:none;stroke-opacity:1"><polyline
           fill="#F8993A"
           points="49.7,22.9 65.2,38.4 65.2,47.7 68.3,50.8 80.7,50.8 83.8,47.7 83.8,38.4 99.3,22.9 99.3,10.5      99.3,4.3 96.2,1.2 83.8,1.2 80.7,4.3 80.7,10.5 74.5,16.7 68.3,10.5 68.3,4.3 65.2,1.2 52.8,1.2 49.7,4.3    "
           id="polyline15"
           style="fill:#000000;fill-opacity:1;stroke:none;stroke-opacity:1" /></g></g><g
       id="g17"
       style="fill:#000000;fill-opacity:1;stroke:none;stroke-opacity:1"><g
         id="g19"
         style="fill:#000000;fill-opacity:1;stroke:none;stroke-opacity:1"><g
           id="g21"
           style="fill:#000000;fill-opacity:1;stroke:none;stroke-opacity:1"><polyline
             fill="#679ACD"
             points="99.3,41.5 108.6,50.8 139.7,50.8 149,41.5 149,32.2 145.9,29.1 130.4,29.1 130.4,32.2       118,32.2 118,19.8 130.4,19.8 130.4,22.9 145.9,22.9 149,19.8 149,10.5 139.7,1.2 108.6,1.2 99.3,10.5     "
             id="polyline23"
             style="fill:#000000;fill-opacity:1;stroke:none;stroke-opacity:1" /></g></g></g></g></svg>