<svg xmlns:svg="http://www.w3.org/2000/svg" xmlns="http://www.w3.org/2000/svg" width="512" height="512"><g transform="translate(0,-540.36216)"><path style="fill:#fff" d="m 325.06937,987.1675 c -11.69374,-9.1983 -22.90031,-28.05922 -25.77426,-43.37873 -4.30554,-22.95048 -13.33268,-32.08783 -58.90216,-59.62133 -46.20764,-27.91907 -56.78257,-31.38953 -74.78819,-24.54381 -24.31356,9.24401 -41.83603,4.51701 -66.905639,-18.049 -48.610234,-43.75573 5.320429,-131.88856 66.477479,-108.63669 17.54872,6.67201 28.48761,2.88718 75.05555,-25.96896 44.89079,-27.8169 55.36318,-38.31191 59.33031,-59.45854 2.64961,-14.12359 14.12772,-33.00271 25.50691,-41.95358 66.91248,-52.63337 145.92153,40.25528 85.57213,100.60469 -18.07623,18.07623 -25.17022,20.03605 -58.31546,16.11049 -33.98776,-4.02535 -42.62302,-1.37908 -86.94239,26.64343 -64.1255,40.54565 -63.98601,52.61398 1.0831,93.70884 44.77977,28.281 54.31244,31.30744 87.00507,27.62251 31.83324,-3.58807 39.44352,-1.41017 57.23238,16.37869 60.29602,60.29603 -18.77619,153.13299 -85.63483,100.54199 z"/></g></svg>