<svg xmlns:svg="http://www.w3.org/2000/svg" xmlns="http://www.w3.org/2000/svg" width="320" height="320"><g transform="translate(0,-732.36216)"><path style="fill:#000;stroke:none" d="m 135.56302,1050.6039 c -4.44741,-1.9371 -10.32545,-8.4983 -11.10947,-12.4006 -0.30015,-1.4938 -0.8714,-9.888 -1.26944,-18.6536 l -0.72372,-15.9375 5.98858,0 c 5.79143,0 6.29524,-0.3087 15.302,-9.37601 l 9.31342,-9.37599 -9.94036,-9.99901 c -9.29307,-9.34789 -10.28379,-9.99901 -15.21402,-9.99901 l -5.27363,0 0.24431,-17.8125 0.24431,-17.8125 -17.8125,0.24431 -17.8125,0.24431 0,-5.9163 c 0,-5.45221 -0.494261,-6.40288 -6.300876,-12.11931 l -6.300875,-6.20301 24.113375,-0.625 24.113376,-0.625 0.36212,-10.25474 0.36212,-10.25473 -4.08414,-2.11201 c -2.24628,-1.16158 -7.88303,-4.63807 -12.52612,-7.72552 l -8.441976,-5.61354 -10.336001,6.93754 c -14.924903,10.0176 -32.120573,18.398 -37.750683,18.398 -9.302199,0 -15.259085,-10.98409 -10.016253,-18.46928 1.069238,-1.52655 6.553613,-4.9833 12.1875,-7.68165 5.633889,-2.69836 13.79584,-7.21102 18.137672,-10.02816 l 7.89424,-5.12205 -7.031202,-7.76973 c -8.754668,-9.67422 -15.436121,-19.63585 -16.398896,-24.44973 -0.830624,-4.15312 1.040121,-8.57639 4.975419,-11.76411 2.567249,-2.07955 2.190685,-2.16073 -10.1463,-2.1875 l -12.8125,-0.0278 0,-12.5 0,-12.5 24.375,0 24.375,0 0,-5.625 0,-5.625 12.5,0 12.5,0 0,5.625 0,5.625 24.375,0 24.375,0 0,12.5 0,12.5 -6.875,0 c -4.66524,0 -6.87586,0.50222 -6.87768,1.5625 -0.007,4.52064 -11.65928,23.21898 -22.24171,35.69347 -3.70227,4.3642 -6.53997,8.10594 -6.306,8.31498 0.23396,0.20904 3.39279,2.19187 7.01961,4.40629 5.67373,3.46421 6.87772,3.79042 8.6252,2.337 1.41423,-1.17626 7.57299,-1.87904 20.28079,-2.31424 l 18.24979,-0.625 0.32701,-49.0625 0.327,-49.0625 -73.764501,0 -73.764509,0 0,73.75 0,73.75 17.76551,0 17.76551,0 -5.89051,5.98044 c -5.507926,5.59201 -5.89051,6.40516 -5.89051,12.5198 l 0,6.53937 -15.9375,-0.72372 C 13.070636,928.2816 12.362202,928.13663 7.4263721,923.9834 -0.20717952,917.5602 0,920.16193 0,830.72393 l 0,-81.71854 2.8784235,-5.44318 c 1.9756476,-3.73601 4.6007861,-6.35399 8.3700295,-8.34721 l 5.491606,-2.90404 83.413991,0.33811 c 82.03022,0.3325 83.47124,0.38086 86.86524,2.91535 1.89817,1.41748 4.611,4.12994 6.02847,6.02771 2.48823,3.3313 2.59883,5.35776 3.20224,58.67276 l 0.625,55.22229 55.22229,0.625 c 53.315,0.60341 55.34146,0.71401 58.67276,3.20224 1.89776,1.41747 4.61024,4.1303 6.02771,6.02847 2.53449,3.394 2.58285,4.83501 2.91535,86.86524 l 0.3381,83.41397 -2.90402,5.4916 c -1.99323,3.7693 -4.61122,6.3944 -8.34721,8.3701 l -5.44319,2.8784 -81.99089,-0.049 c -65.33946,-0.039 -82.76508,-0.3861 -85.80288,-1.7093 z m 61.3132,-51.99172 3.95679,-11.875 20.52099,-0.33843 20.521,-0.33841 4.31315,12.52591 4.31314,12.52595 13.02015,0 c 12.60583,0 12.99832,-0.083 12.33461,-2.6215 -0.37705,-1.4418 -9.82735,-27.3348 -21.00068,-57.53996 l -20.31514,-54.91847 -13.03983,0.35245 -13.03983,0.35246 -21.10528,56.81467 C 175.74737,984.79992 166.25,1010.5533 166.25,1010.7816 c 0,0.2284 6.00063,0.2555 13.33472,0.06 l 13.33472,-0.3548 3.95678,-11.87502 z m 10.90968,-31.5625 c 0.30435,-0.85938 3.26594,-9.4375 6.58131,-19.0625 3.31537,-9.625 6.4384,-17.97124 6.94007,-18.54719 0.75463,-0.8664 13.69272,35.26224 13.69272,38.2359 0,0.51496 -6.24768,0.93629 -13.88374,0.93629 -10.56878,0 -13.75161,-0.37308 -13.33036,-1.5625 z m -105.5831,-135.625 c 5.53949,-6.5174 14.31009,-18.44621 16.08349,-21.875 l 1.77791,-3.4375 -24.0946,0.0398 c -19.175028,0.0316 -23.698125,0.35066 -22.152783,1.5625 1.068,0.83751 3.853754,4.33525 6.190563,7.77275 5.121704,7.53414 16.085259,19.375 17.939486,19.375 0.733823,0 2.648994,-1.54688 4.255934,-3.4375 z m -34.584548,153.03785 -19.256748,-19.39378 0.726356,-24.04287 0.726356,-24.04287 9.117215,-9.17848 9.117214,-9.17848 9.039805,9.68057 9.039805,9.68056 0.06088,24.0625 0.06087,24.0625 23.46878,0 23.46879,0 9.32265,9.38529 9.32265,9.38528 -8.87193,8.87194 -8.87194,8.87191 -23.607,0.6149 -23.607,0.6148 -19.256748,-19.39377 z"/></g></svg>