<svg xmlns:svg="http://www.w3.org/2000/svg" xmlns="http://www.w3.org/2000/svg" width="256" height="256"><g transform="translate(0,-796.36216)"><path style="fill:#fff"  d="m 134,997.00308 c -25.96996,-8.573 -34,-23.10522 -34,-61.53092 0,-28.44331 -0.68574,-31.10998 -8,-31.10998 -12.519468,0 -10.2585,-16.82575 3.641948,-27.1028 6.403072,-4.73399 13.742662,-14.9725 16.310212,-22.75223 3.92789,-11.90163 6.52221,-14.14497 16.35805,-14.14497 11.36108,0 11.68979,0.56238 11.68979,20 l 0,20 16,0 c 15.11111,0 16,0.66667 16,12 0,11.33333 -0.88889,12 -16,12 l -16,0 0,25.67285 c 0,33.1336 2.21576,38.32715 16.35175,38.32715 9.01349,0 12.05367,2.22258 14.07918,10.29286 1.42084,5.66108 1.00513,11.77144 -0.92379,13.57859 -5.2599,4.92783 -26.41804,7.76987 -35.50714,4.76945 z"/></g></svg>