
<svg  xmlns="http://www.w3.org/2000/svg" width="256" height="256"><g transform="matrix(1.5585769,0,0,1.5585769,-71.490566,-26.988921)"><g transform="matrix(25.882115,0,0,-25.882115,132.74931,45.759579)"><path style="fill:#fff" d="M 0,0 C 0.283,-0.023 0.529,0.188 0.553,0.471 0.574,0.754 0.363,1 0.08,1.023 -0.201,1.045 -0.449,0.834 -0.471,0.551 -0.494,0.27 -0.283,0.021 0,0"/></g><g transform="matrix(25.882115,0,0,-25.882115,121.47485,51.217807)"><path style="fill:#fff" d="M 0,0 C 0.102,0.07 0.225,0.117 0.361,0.105 0.537,0.092 0.682,-0.018 0.77,-0.15 L 1.287,-1.178 1.994,-1.664 C 2.055,-1.711 2.092,-1.785 2.084,-1.867 2.074,-1.994 1.963,-2.09 1.836,-2.078 1.797,-2.076 1.766,-2.061 1.73,-2.045 L 0.959,-1.514 C 0.936,-1.494 0.916,-1.471 0.9,-1.445 L 0.707,-1.061 0.475,-2.084 1.385,-3.16 C 1.406,-3.193 1.42,-3.232 1.428,-3.271 L 1.674,-4.57 C 1.672,-4.6 1.676,-4.617 1.674,-4.641 1.66,-4.834 1.492,-4.975 1.301,-4.961 1.143,-4.947 1.025,-4.83 0.988,-4.686 l -0.232,1.217 -0.74,0.811 -0.172,-0.789 c -0.006,-0.037 -0.055,-0.116 -0.069,-0.147 l -0.711,-1.197 c -0.07,-0.109 -0.189,-0.18 -0.324,-0.168 -0.193,0.014 -0.336,0.182 -0.32,0.373 0.004,0.055 0.027,0.111 0.047,0.15 l 0.66,1.108 0.551,2.439 -0.36,-0.291 -0.191,-0.869 C -0.898,-2.16 -1,-2.252 -1.119,-2.242 c -0.129,0.01 -0.223,0.121 -0.213,0.25 0,0.01 0.002,0.019 0.004,0.031 l 0.226,1.014 c 0.014,0.043 0.038,0.082 0.071,0.111 L 0,0 z"/></g></g></svg>
