<svg xmlns:svg="http://www.w3.org/2000/svg" xmlns="http://www.w3.org/2000/svg" width="256" height="256"><path d="M 58.591039,47.572258 C 47.863535,48.453263 41.132632,55.050374 37.433853,64.297314 L 20.207041,108.20057 34.088842,107.2807 49.225008,68.813079 c 1.387056,-3.236428 5.089332,-6.394912 9.366031,-6.857273 39.932307,-5.257171 93.300361,-5.547715 138.901551,0 4.27669,0.462361 7.89535,3.620845 9.28241,6.857273 l 15.13616,38.467621 13.88179,0.91987 -17.22679,-43.903256 c -3.69882,-9.24694 -10.45361,-15.654001 -21.07357,-16.725056 -40.00779,-4.034895 -94.48656,-3.647588 -138.901551,0 z M 128,103.76843 c -31.575608,0.14662 -63.081127,2.96407 -94.412911,6.77366 -13.080968,1.83063 -21.668665,4.66996 -26.3419577,12.2929 -9.097681,14.83999 -3.8329634,38.55123 18.3139307,38.55123 l 90.398898,0 24.08408,0 90.3989,0 c 22.14688,0 27.41161,-23.71124 18.31393,-38.55123 -4.6733,-7.62294 -13.26098,-9.45876 -26.34195,-11.28942 -31.35525,-3.43316 -62.82969,-7.9238 -94.41292,-7.77714 z m -96.921669,16.97593 c 9.062224,0 16.390546,7.32834 16.390546,16.39055 0,9.06218 -7.328322,16.47419 -16.390546,16.47417 -9.062201,0 -16.474174,-7.41199 -16.474183,-16.47417 0,-9.0622 7.411982,-16.3906 16.474183,-16.39055 z m 193.926969,0 c 9.06219,-5e-5 16.39055,7.32835 16.39055,16.39055 -2e-5,9.06218 -7.32836,16.47417 -16.39055,16.47417 -9.06222,2e-5 -16.47417,-7.41199 -16.47417,-16.47417 0,-9.06221 7.41195,-16.39055 16.47417,-16.39055 z m -217.7601687,44.405 c -2.3052479,0 -4.1812638,1.7924 -4.1812638,4.09764 l 0,5.51927 c 0,2.30525 1.8760159,4.26488 4.1812638,4.26488 l 8.0280187,0 0,25.84021 c 0,3.53667 2.902435,6.43914 6.439146,6.43914 l 24.502203,0 c 3.536711,0 6.439146,-2.90242 6.439146,-6.43914 l 0,-25.84021 53.185665,0 44.405,0 53.18567,0 0,25.84021 c 0,3.53672 2.81883,6.43914 6.35553,6.43914 l 24.50219,0 c 3.53672,0 6.43915,-2.90247 6.43915,-6.43914 l 0,-25.84021 8.02802,0 c 2.30522,0 4.18126,-1.95963 4.18126,-4.26488 l 0,-5.51927 c 0,-2.30524 -1.87602,-4.09764 -4.18126,-4.09764 l -106.62219,0 -28.26536,0 -106.6221887,0 z" fill="#fff"/></svg>
