<svg xmlns:svg="http://www.w3.org/2000/svg" xmlns="http://www.w3.org/2000/svg" width="512" height="512"><g transform="translate(-35.874363,4.1199739)"><path d="m 100.16924,202.12413 -48.542967,24.27148 c -9.712,4.861 -15.748047,14.62538 -15.748047,25.48438 0,10.861 6.035953,20.62723 15.751953,25.49023 l 215.115231,107.5586 c 7.868,3.93 16.49596,5.89258 25.12696,5.89258 8.631,0 17.26576,-1.96449 25.13476,-5.89649 L 532.12041,277.36827 c 10e-4,-10e-4 0.002,-9.5e-4 0.004,-0.002 9.712,-4.861 15.74609,-14.62633 15.74609,-25.48633 0,-10.86 -6.034,-20.62333 -15.75,-25.48633 l -48.53906,-24.26953 -26.56055,13.28125 64.47266,32.23633 c 2.281,1.142 2.62305,3.14528 2.62305,4.23828 0,1.094 -0.34114,3.09728 -2.61914,4.23828 L 306.38994,363.67296 c -9.088,4.539 -19.93939,4.53895 -29.02539,0.002 L 62.259086,256.12218 c -2.281,-1.142 -2.623047,-3.14819 -2.623047,-4.24219 0,-1.093 0.34214,-3.09733 2.61914,-4.23633 l 64.476561,-32.23828 -26.5625,-13.28125 z" style="fill:#fff"/><path d="M 532.11986,117.62747 317.00586,10.068472 c -15.738,-7.8599998 -34.526,-7.8599998 -50.265,0.002 L 51.624865,117.62947 c -9.712,4.861 -15.747,14.627 -15.747,25.486 0,10.861 6.035,20.626 15.751,25.489 l 215.115995,107.558 c 7.868,3.93 16.497,5.894 25.128,5.894 8.631,0 17.265,-1.965 25.134,-5.897 l 215.113,-107.556 c 10e-4,-10e-4 0.002,-10e-4 0.004,-0.002 9.712,-4.861 15.747,-14.627 15.747,-25.487 0,-10.86 -6.035,-20.624 -15.751,-25.487 z m -10.623,29.726 -215.108,107.554 c -9.088,4.539 -19.939,4.539 -29.025,0.002 L 62.257865,147.35647 c -2.281,-1.142 -2.622,-3.147 -2.622,-4.241 0,-1.093 0.341,-3.098 2.618,-4.237 L 277.36386,31.323472 c 4.544,-2.27 9.528,-3.405 14.514,-3.405 4.983,0 9.967,1.135 14.508,3.403 l 215.108,107.553998 c 2.281,1.142 2.622,3.147 2.622,4.24 0,1.094 -0.341,3.097 -2.619,4.238 z" style="fill:#fff"/><path d="m 100.16924,310.88906 -48.542969,24.27148 c -9.712,4.861 -15.748047,14.62538 -15.748047,25.48438 0,10.861 6.035953,20.62723 15.751953,25.49023 l 215.115233,107.5586 c 7.868,3.93 16.49596,5.89258 25.12696,5.89258 8.631,0 17.26576,-1.96449 25.13476,-5.89649 L 532.12041,386.1332 c 10e-4,-10e-4 0.002,-9.5e-4 0.004,-0.002 9.712,-4.861 15.74609,-14.62633 15.74609,-25.48633 0,-10.86 -6.034,-20.62333 -15.75,-25.48633 l -48.53906,-24.26953 -26.56055,13.28125 64.47266,32.23633 c 2.281,1.142 2.62305,3.14528 2.62305,4.23828 0,1.094 -0.34114,3.09728 -2.61914,4.23828 L 306.38994,472.43789 c -9.088,4.539 -19.93939,4.53895 -29.02539,0.002 L 62.259084,364.88711 c -2.281,-1.142 -2.623047,-3.14819 -2.623047,-4.24219 0,-1.093 0.34214,-3.09733 2.61914,-4.23633 l 64.476563,-32.23828 -26.5625,-13.28125 z" style="fill:#fff"/></g></svg>