<svg xmlns:svg="http://www.w3.org/2000/svg" xmlns="http://www.w3.org/2000/svg" width="128" height="128"><g transform="matrix(0.08333333,0,0,-0.08333333,2.56e-6,117.33333)"><path d="m 384,0 768,0 0,384 -768,0 0,-384 z m 896,0 128,0 0,896 q 0,14 -10,38.5 -10,24.5 -20,34.5 l -281,281 q -10,10 -34,20 -24,10 -39,10 l 0,-416 q 0,-40 -28,-68 -28,-28 -68,-28 l -576,0 q -40,0 -68,28 -28,28 -28,68 l 0,416 -128,0 0,-1280 128,0 0,416 q 0,40 28,68 28,28 68,28 l 832,0 q 40,0 68,-28 28,-28 28,-68 l 0,-416 z m -384,928 0,320 q 0,13 -9.5,22.5 -9.5,9.5 -22.5,9.5 l -192,0 q -13,0 -22.5,-9.5 Q 640,1261 640,1248 l 0,-320 q 0,-13 9.5,-22.5 Q 659,896 672,896 l 192,0 q 13,0 22.5,9.5 9.5,9.5 9.5,22.5 z m 640,-32 0,-928 q 0,-40 -28,-68 -28,-28 -68,-28 l -1344,0 q -40,0 -68,28 -28,28 -28,68 l 0,1344 q 0,40 28,68 28,28 68,28 l 928,0 q 40,0 88,-20 48,-20 76,-48 l 280,-280 q 28,-28 48,-76 20,-48 20,-88 z" style="fill:#fff"/></g></svg>