<svg xmlns:svg="http://www.w3.org/2000/svg" xmlns="http://www.w3.org/2000/svg" width="256" height="256"><g transform="translate(0,-796.36216)"><path style="fill:#fff" d="m 53.19692,999.93809 c -19.448794,-5.6245 -19.007974,-10.17016 1.486716,-15.33078 20.624436,-5.1933 40.022508,-16.24513 28.513292,-16.24513 C 75.878312,968.36218 52,949.72028 52,944.0066 c 0,-2.00443 3.15,-3.69232 7,-3.75086 5.238908,-0.0796 4.309048,-1.77585 -3.696032,-6.74203 C 37.736604,922.61529 29.15572,897.65079 44.669492,902.57467 l 8.669492,2.75159 -8.669492,-11.02148 C 36.52922,883.9561 32.895013,860.8005 38.527144,855.16837 c 1.389929,-1.38993 9.699788,3.61237 18.466356,11.11623 15.270988,13.0714 44.83382,26.07758 59.27389,26.07758 4.6097,0 7.67182,-4.42181 9.3846,-13.5517 3.87304,-20.6451 19.9487,-34.47528 39.89347,-34.32109 9.05,0.07 19.7908,2.6546 23.86845,5.74363 5.33085,4.03839 10.18044,4.56458 17.2604,1.87279 13.55691,-5.15433 14.20407,-4.85896 9.32569,4.25637 -3.50538,6.54986 -3.04196,8 2.55652,8 6.02486,0 5.85397,1.07023 -1.43707,9 -4.55128,4.95 -9.52568,17.1 -11.05421,27 C 196.50196,962.30142 149.84474,1004.678 92,1003.9624 c -14.3,-0.177 -31.761384,-1.9879 -38.80308,-4.02431 z"/></g></svg>