<svg xmlns="http://www.w3.org/2000/svg" viewBox="0 0 50.26 50.26"><path d="M46.36,22.77l-9.44,9.43A13.18,13.18,0,0,1,16,29.52l4.38-4.38a3.14,3.14,0,0,1,.71-.47,6.56,6.56,0,0,0,1.65,2.83,6.68,6.68,0,0,0,9.43,0l9.43-9.43a6.67,6.67,0,0,0-9.43-9.43L28.85,12a16.73,16.73,0,0,0-8.51-.93l7.15-7.15A13.34,13.34,0,0,1,46.36,22.77ZM21.41,38.28l-3.36,3.36a6.67,6.67,0,0,1-9.43-9.44l9.43-9.43a6.67,6.67,0,0,1,9.43,0,6.6,6.6,0,0,1,1.65,2.83,3.19,3.19,0,0,0,.71-.47l4.38-4.38a13.12,13.12,0,0,0-2-2.69,13.34,13.34,0,0,0-18.87,0L3.91,27.49A13.34,13.34,0,0,0,22.77,46.36l7.15-7.15A16.73,16.73,0,0,1,21.41,38.28Z" fill="rgba(0,0,0,.5)"/></svg>
