<svg xmlns="http://www.w3.org/2000/svg" width="256" height="256"><path d="m 28.1,12.8 c -8.64,0 -15.3,6.66 -15.3,15.3 l 0,104.7 c 0,7.68 6.66,14.4 15.3,14.4 l 23.1,0 -19.2,19.2 9.6,0 0,28.8 28.8,28.8 28.8,0 0,9.6 9.6,-9.6 0,3 c 0,8.64 7.56,16.2 16.2,16.2 l 102,0 c 8.64,0 16.2,-7.56 16.2,-16.2 l 0,-102 c 0,-8.64 -7.56,-16.2 -16.2,-16.2 l -78.9,0 0,-80.7 c -0.96,-8.64 -7.56,-15.3 -16.2,-15.3 l -103.8,0 z m 2.1,17.4 99.6,0 0,78.6 -4.8,0 c -8.64,0 -16.2,7.56 -16.2,16.2 l 0,6 -78.6,0 0,-100.8 z m 40.2,11.4 0,9.6 -28.8,0 0,9.6 59.1,0 C 94.707191,71.877461 87.315449,80.799287 79.7,88.1 76.011559,84.868487 72.790584,81.779101 70.4,79.1 63.932078,71.851466 62,67.7 62,67.7 l -12,5.4 c 0,0 2.747922,6.648534 10.2,15 2.471241,2.769494 5.69058,5.822522 9.3,9 -15.412245,11.84203 -29.1,16.8 -29.1,16.8 l 4.5,12.9 c 0,0 16.933957,-5.9946 35.4,-21 5.376718,3.87857 11.429626,7.73742 18.6,11.7 l 6.3,-11.7 c -5.650438,-3.12261 -10.377325,-6.25778 -14.7,-9.3 8.557086,-8.493857 16.83825,-18.961785 23.4,-31.8 l -7.8,-3.9 12.3,0 0,-9.6 -28.8,0 0,-9.6 -19.2,0 z m 96.9,89.4 20.1,0 32.7,89.1 -21,0 -6.9,-19.2 -31.5,0 -6.9,19.2 -20.1,0 33.6,-89.1 z m -106.5,16.2 48,0 0,48 -9.6,-9.6 0,9.6 -28.8,0 0,-28.8 9.6,0 -19.2,-19.2 z m 115.2,8.7 -11.4,31.5 21.9,0 -10.5,-31.5 z" fill="#fff"/></svg>