<svg xmlns="http://www.w3.org/2000/svg" width="256" height="256"><path d="m 174.53706,198.13143 c 12.19723,-1.96591 24.33881,-14.68682 24.33881,-30.19043 l 0,-113.352302 c 0,-16.002903 -13.46244,-30.692372 -31.75298,-30.692372 l -78.245249,0 c -18.290016,0 -31.752977,14.689469 -31.752977,30.692372 l 0,113.352302 c 0,15.50361 12.141577,28.22452 24.338808,30.19043 l -36.578972,54.86846 21.103987,0 26.164258,-38.35725 71.695035,0 26.16426,38.35725 21.10346,0 -36.57844,-54.86846 z M 107.39398,35.564579 c 0,-2.782698 2.42016,-5.120165 5.20286,-5.120165 l 30.80685,0 c 2.7827,0 5.20286,2.337467 5.20286,5.120165 l 0,9.010644 c 0,2.782699 -2.28765,5.174759 -5.20286,5.174759 l -30.80685,0 c -2.91521,0 -5.20286,-2.39206 -5.20286,-5.174759 l 0,-9.010644 z M 74.117147,71.739662 c 0,-8.480605 5.484832,-15.880993 15.82057,-15.880993 l 76.125093,0 c 10.33574,0 15.8211,7.400388 15.8211,15.880993 l 0,20.406457 c 0.08,9.805701 -7.07547,15.808911 -15.8211,15.808911 l -76.125093,0 c -8.745624,0 -15.901135,-6.00321 -15.82057,-15.808911 l 0,-20.406457 z M 88.215094,181.5969 c -7.688199,0 -13.920384,-6.23325 -13.920384,-13.92092 0,-7.68767 6.232185,-13.92038 13.920384,-13.92038 7.688199,0 13.920386,6.23271 13.920386,13.92038 0,7.68767 -6.232187,13.92092 -13.920386,13.92092 z m 65.327166,-13.92039 c 0,-7.68767 6.23218,-13.92038 13.92038,-13.92038 7.6882,0 13.92039,6.23271 13.92039,13.92038 0,7.68767 -6.23219,13.92092 -13.92039,13.92092 -7.6882,0 -13.92038,-6.23378 -13.92038,-13.92092 z M 148.47828,11.794502 c 0,4.857007 -3.93738,8.794388 -8.79439,8.794388 -4.857,0 -8.79439,-3.937381 -8.79439,-8.794388 0,-4.857007 3.93739,-8.7943878 8.79439,-8.7943878 4.85701,0 8.79439,3.9373808 8.79439,8.7943878 z m -23.36725,0 c 0,4.857007 -3.93738,8.794388 -8.79438,8.794388 -4.85701,0 -8.79439,-3.937381 -8.79439,-8.794388 0,-4.857007 3.93738,-8.7943878 8.79439,-8.7943878 4.857,0 8.79438,3.9373808 8.79438,8.7943878 z" fill="#fff"/></svg>
