<svg xmlns:svg="http://www.w3.org/2000/svg" xmlns="http://www.w3.org/2000/svg" width="512px" height="1024px"><path style="fill:#000;stroke:#fff" stroke-width="10" d="m 256,25.6 c -95.4279,0 -172.8,77.3721 -172.8,172.8 0,95.4279 144,288 172.8,288 28.8,0 172.8,-192.5721 172.8,-288 C 428.8,102.9721 351.4279,25.6 256,25.6 z m 0,288 c -63.5346,0 -115.2,-51.6942 -115.2,-115.2 0,-63.5058 51.6654,-115.2 115.2,-115.2 63.5346,0 115.2,51.6942 115.2,115.2 0,63.5058 -51.6654,115.2 -115.2,115.2 z"/><polygon style="fill:#000;stroke:#fff" stroke-width="10" transform="matrix(0.36,0,0,0.36,160.72934,103.79972)" points="374.185,309.08 401.33,467.31 259.216,392.612 117.104,467.31 144.25,309.08 29.274,197.007 188.165,173.919 259.216,29.942 330.27,173.919 489.16,197.007 "/></svg>