<svg xmlns:svg="http://www.w3.org/2000/svg" xmlns="http://www.w3.org/2000/svg" width="64" height="64"><g transform="matrix(0.19946351,0,0,0.19323129,-15.871243,-14.375413)" stroke-width="10" stroke="rgba(0,0,0,1)" fill="rgba(0,0,0,0.5)"><path d="m 240,79.57 c -59.094,0 -106.992,47.898 -106.992,106.992 0,25.367 8.836,48.68 23.594,67.016 17.914,22.273 56.461,42.32 64.117,130.734 0,5.188 3.219,16.117 19.281,16.117 16.055,0 19.57,-10.938 19.57,-16.117 7.656,-88.414 45.914,-108.469 63.828,-130.734 14.766,-18.328 23.594,-41.647 23.594,-67.016 C 346.992,127.469 299.078,79.57 240,79.57 z m -1.672,141.742 c -19.109,0 -34.594,-15.492 -34.594,-34.602 0,-19.102 15.484,-34.594 34.594,-34.594 19.109,0 34.602,15.493 34.602,34.595 0,19.118 -15.492,34.601 -34.602,34.601 z"/></g></svg>