<svg xmlns:svg="http://www.w3.org/2000/svg" xmlns="http://www.w3.org/2000/svg" width="320" height="320"><path style="fill:#0095dd" d="m 111.25,299.30285 c 0,-0.53955 0.98438,-2.0671 2.1875,-3.39456 1.86971,-2.06294 2.24434,-5.55011 2.57873,-24.00405 l 0.39124,-21.59049 -14.76624,-0.55771 C 89.887782,249.31211 85.854841,248.66866 81.875,246.60237 74.408528,242.72589 67.617325,235.17635 59.975355,222.25735 56.20766,215.88794 50.20856,207.71186 46.644021,204.0883 l -6.480977,-6.5883 3.980977,0.0275 c 6.02547,0.0415 12.937234,3.82821 23.980979,13.13814 17.34042,14.61806 17.58532,14.73002 33.55751,15.3414 l 13.97095,0.53476 1.46689,-5.48454 c 0.80679,-3.0165 3.52746,-8.1832 6.04594,-11.48154 2.51847,-3.29835 4.38322,-6.15729 4.14387,-6.35322 -0.23933,-0.19598 -4.09141,-1.03055 -8.56016,-1.85468 -25.092322,-4.62746 -44.606945,-15.24877 -56.637271,-30.82623 l -5.237729,-6.78207 -11.647634,-0.005 c -6.406198,-0.003 -17.830461,0.8991 -25.38725,2.00383 -12.4568485,1.82105 -16.5270552,1.76169 -14.5530942,-0.21227 1.4075246,-1.40753 21.6897822,-4.32681 35.5685832,-5.11948 9.32471,-0.53258 14.068988,-1.27806 13.773576,-2.1643 -0.820232,-2.46069 -11.279057,-3.40745 -28.628632,-2.59154 -17.5559691,0.82586 -26.6260122,0.0345 -23.3544744,-2.0375 0.950909,-0.60224 12.2758004,-1.1036 25.1664254,-1.11412 17.930184,-0.0146 23.427181,-0.38629 23.393589,-1.58164 -0.02415,-0.85938 -0.848141,-5.21875 -1.831089,-9.6875 -2.607359,-11.85377 -2.365784,-30.18115 0.547989,-41.573891 2.721917,-10.642593 5.967322,-17.658934 12.002454,-25.94847 l 4.111514,-5.64736 -1.394527,-9.679881 c -1.330254,-9.233736 -0.0134,-28.971737 2.342486,-35.11109 1.84885,-4.818025 21.789436,-0.372427 39.607304,8.830138 l 11.06387,5.714267 11.48445,-1.666285 c 14.13378,-2.050678 45.5225,-1.86504 58.98446,0.348841 l 10,1.644546 8.125,-4.644249 c 9.64384,-5.512416 25.47419,-10.988116 34.44294,-11.913772 l 6.43195,-0.663837 1.39825,5.55294 c 2.14861,8.5329 3.84003,25.991723 3.1252,32.258103 -0.57487,5.039393 -0.10188,6.43203 4.54292,13.376849 11.20318,16.750662 15.82731,35.047471 14.60776,57.800071 -0.42592,7.94644 -1.12505,16.2762 -1.55358,18.51058 l -0.77919,4.0625 23.57937,0.0191 c 12.96867,0.01 24.32788,0.49365 25.2427,1.07359 2.96667,1.88069 -5.41938,2.65729 -28.69457,2.65729 -17.9047,0 -22.34375,0.33466 -22.34375,1.6845 0,1.26661 3.53732,1.88652 14.2593,2.4989 16.0003,0.91384 33.03064,3.80905 35.03788,5.95656 1.35805,1.45295 1.26355,1.44618 -20.54718,-1.47132 -4.46875,-0.59777 -13.5058,-1.10525 -20.08232,-1.12774 l -11.95733,-0.0409 -2.75977,4.91036 c -4.03369,7.17698 -18.85978,20.33715 -27.94224,24.80254 -8.0434,3.95454 -28.05128,10.2871 -32.50234,10.2871 -1.35539,0 -2.27684,0.42187 -2.04766,0.9375 0.22916,0.51562 2.3596,4.81074 4.7343,9.54469 l 4.31762,8.60719 0.52689,33.67099 c 0.52034,33.25262 0.56376,33.71486 3.49486,37.19827 1.6324,1.93998 2.96799,3.77482 2.96799,4.07742 0,1.16104 -15.25585,-1.60416 -18.7127,-3.39177 -7.15525,-3.70013 -7.5373,-5.25958 -7.5373,-30.76618 0,-23.51092 -0.65,-31.12811 -2.65625,-31.12811 -0.60156,0 -1.09375,13.52794 -1.09375,30.06207 0,24.50192 0.35273,30.74418 1.9071,33.75 l 1.9071,3.68793 -4.3818,0 c -6.77341,0 -14.06644,-3.48776 -16.9084,-8.08616 -2.33735,-3.78193 -2.524,-6.17594 -2.524,-32.37388 0,-23.48996 -0.29859,-28.28996 -1.75976,-28.28996 -1.44945,0 -1.84887,5.23519 -2.26497,29.6875 -0.27786,16.32812 -0.90986,30.56101 -1.40443,31.62865 -1.59797,3.44944 -8.3253,6.42133 -16.13972,7.12991 l -7.62742,0.69163 2.72315,-3.8243 C 139.88892,292.89506 140,291.53906 140,263.31831 140,246.0889 139.50801,233.59347 138.81271,233.16376 135.91677,231.37398 135,238.39401 135,262.35901 c 0,15.57759 -0.52044,26.1656 -1.37874,28.04935 -0.7583,1.6643 -3.43017,4.17193 -5.9375,5.57252 -4.76323,2.66074 -16.43376,5.01986 -16.43376,3.32197 z m -7.78646,-67.81848 C 103.73993,230.65521 102.80885,230 101.35417,230 c -2.59666,0 -3.374919,1.31259 -1.744795,2.94271 1.158095,1.15809 3.245275,0.36834 3.854165,-1.45834 z M 113.75,231.875 c 0,-1.04166 -1.11111,-1.875 -2.5,-1.875 -2.4903,0 -3.25141,1.33192 -1.66667,2.91666 1.52242,1.52241 4.16667,0.86135 4.16667,-1.04166 z m -20,-0.41666 c 0,-1.76125 -1.40799,-2.56925 -3.247208,-1.86348 C 87.894114,230.59591 88.38385,232.5 91.25,232.5 c 1.375,0 2.5,-0.46875 2.5,-1.04166 z M 83.816026,228.125 c -0.098,-1.85536 -2.894523,-1.5145 -3.543319,0.43187 -0.350467,1.0514 0.220963,1.51999 1.524359,1.25 1.146743,-0.23752 2.055275,-0.99437 2.01896,-1.68187 z m -7.1875,-4.98288 c 0.135562,-0.67808 -0.737901,-1.42246 -1.941026,-1.65416 -1.368254,-0.2635 -2.1875,0.34959 -2.1875,1.63704 0,2.17474 3.69412,2.19005 4.128526,0.0171 z m -6.056907,-4.30575 C 71.496045,217.34062 69.144587,215.85859 67.47961,216.8876 66.081662,217.75157 66.999401,220 68.75,220 c 0.606351,0 1.42608,-0.52364 1.821619,-1.16363 z M 65,212.5 c 0,-0.6875 -0.5625,-1.25 -1.25,-1.25 -0.6875,0 -1.25,0.5625 -1.25,1.25 0,0.6875 0.5625,1.25 1.25,1.25 0.6875,0 1.25,-0.5625 1.25,-1.25 z" /></svg>